<svg  viewBox="0 0 460 555" fill="none" xmlns="http://www.w3.org/2000/svg">
<path d="M118.082 260.973C101.87 258.018 91.12 242.45 94.0717 226.221C97.0234 209.991 112.575 199.23 128.787 202.185C145 205.14 155.749 220.708 152.797 236.937C149.846 253.167 134.294 263.928 118.082 260.973Z" fill="#6EE8FC"/>
<path d="M428.917 233.245C445.598 229.347 455.964 212.65 452.07 195.952C448.176 179.254 431.497 168.877 414.816 172.775C398.136 176.673 387.77 193.37 391.664 210.068C395.558 226.767 412.237 237.143 428.917 233.245Z" fill="#6EE8FC"/>
<path opacity="0.6" d="M345.34 269.771L265.424 291.205C259.741 292.726 256.568 288.647 258.309 282.076L278.86 205.25C280.623 198.679 286.658 192.13 292.341 190.586L372.258 169.153C377.941 167.631 381.113 171.711 379.373 178.282L358.821 255.107C357.059 261.678 351.023 268.228 345.34 269.771Z" fill="#0C0F38"/>
<path d="M253.264 303.289C251.281 303.289 249.563 302.649 248.308 301.37C246.149 299.209 245.554 295.461 246.744 291.073L270.974 200.575C273.111 192.593 280.49 184.589 287.451 182.714L381.597 157.466C384.813 156.606 387.588 157.135 389.439 158.965C391.597 161.126 392.192 164.897 391.003 169.263L366.772 259.76C364.636 267.743 357.256 275.769 350.296 277.621L256.15 302.87C255.136 303.134 254.189 303.267 253.286 303.267L253.264 303.289ZM384.416 158.789C383.667 158.789 382.852 158.899 381.993 159.142L287.847 184.39C281.415 186.11 274.565 193.585 272.582 201.061L248.352 291.558C247.339 295.328 247.757 298.482 249.475 300.202C250.863 301.591 253.066 301.966 255.665 301.26L349.811 276.012C356.243 274.292 363.094 266.816 365.076 259.341L389.307 168.844C390.32 165.073 389.901 161.92 388.161 160.2C387.236 159.274 385.936 158.789 384.394 158.789H384.416Z" fill="url(#paint0_linear_367_1420)"/>
<path d="M348.798 140.795L323.664 165.956L279.543 177.797C273.86 179.318 267.824 185.89 266.062 192.461L254.674 235.041L229.562 260.179L246.436 277.07C247.735 278.57 249.894 279.143 252.625 278.415L332.542 256.982C338.225 255.46 344.26 248.889 346.023 242.318L366.574 165.492C367.477 162.075 367.059 159.34 365.649 157.708L348.776 140.795H348.798Z" fill="url(#paint1_linear_367_1420)"/>
<path d="M365.406 164.324L344.854 241.149C343.092 247.72 337.057 254.269 331.374 255.813L251.457 277.246C248.726 277.974 246.589 277.401 245.268 275.901L246.435 277.07C247.735 278.569 249.893 279.143 252.625 278.415L332.541 256.982C338.224 255.46 344.26 248.889 346.022 242.318L366.574 165.492C367.477 162.074 367.058 159.34 365.649 157.708L364.481 156.518C365.891 158.171 366.331 160.906 365.406 164.324Z" fill="url(#paint2_linear_367_1420)"/>
<path d="M249.189 276.607L232.316 259.738L257.427 234.6L268.816 192.019C270.578 185.448 276.613 178.899 282.297 177.355L326.418 165.514L349.965 141.942L348.798 140.773L323.664 165.933L279.543 177.774C273.86 179.296 267.824 185.867 266.062 192.438L254.674 235.019L229.562 260.157L246.436 277.048C247.735 278.547 249.894 279.121 252.625 278.393L253.066 278.283C251.414 278.283 250.092 277.687 249.189 276.629V276.607Z" fill="#D4088C"/>
<path d="M348.709 143.574L365.494 160.377C366.287 161.325 366.772 162.604 366.86 164.169C367.344 161.369 366.86 159.12 365.648 157.686L348.951 140.95C348.775 141.81 348.665 142.67 348.709 143.552V143.574Z" fill="#6EE8FC"/>
<path d="M315.668 240.069L235.752 261.502C230.069 263.024 226.897 258.944 228.637 252.373L249.189 175.547C250.951 168.976 256.986 162.427 262.67 160.884L342.586 139.45C348.269 137.929 351.441 142.008 349.701 148.579L329.149 225.405C327.387 231.976 321.351 238.525 315.668 240.069Z" fill="url(#paint3_linear_367_1420)"/>
<path d="M342.586 139.472L262.67 160.906C259.718 161.699 256.7 163.838 254.211 166.639C256.237 164.831 258.484 163.486 260.687 162.89L340.603 141.457C346.286 139.935 349.458 144.015 347.718 150.586L327.166 227.411C326.329 230.587 324.479 233.74 322.166 236.342C325.382 233.475 328.07 229.462 329.149 225.427L349.701 148.601C351.463 142.03 348.269 137.951 342.586 139.472Z" fill="#6EE8FC"/>
<path d="M308.906 229.947L249.41 245.912C245.18 247.036 242.801 243.993 244.123 239.12L259.432 181.92C260.732 177.025 265.226 172.151 269.455 171.005L328.951 155.04C333.181 153.915 335.56 156.958 334.238 161.832L318.929 219.032C317.629 223.927 313.136 228.8 308.906 229.947Z" fill="url(#paint4_linear_367_1420)"/>
<path d="M303.465 221.832L260.357 233.387C257.295 234.203 255.577 231.998 256.524 228.47L267.604 187.036C268.551 183.486 271.811 179.958 274.873 179.142L317.981 167.587C321.043 166.771 322.761 168.976 321.814 172.505L310.734 213.938C309.787 217.488 306.527 221.017 303.465 221.832Z" fill="#6DE0F6"/>
<path d="M317.937 237.797L238.021 259.231C232.338 260.752 229.166 256.673 230.906 250.102L251.458 173.276C252.295 170.167 254.101 167.058 256.37 164.478C253.066 167.345 250.29 171.446 249.189 175.57L228.637 252.395C226.875 258.966 230.069 263.046 235.752 261.524L315.668 240.091C318.642 239.297 321.726 237.092 324.237 234.247C322.255 235.967 320.074 237.246 317.937 237.819V237.797Z" fill="#D4088C"/>
<mask id="mask0_367_1420" style="mask-type:luminance" maskUnits="userSpaceOnUse" x="256" y="167" width="67" height="67">
<path d="M303.465 221.832L260.357 233.387C257.295 234.203 255.577 231.998 256.524 228.47L267.604 187.036C268.551 183.486 271.811 179.958 274.873 179.142L317.981 167.587C321.043 166.771 322.761 168.976 321.814 172.505L310.734 213.938C309.787 217.488 306.527 221.017 303.465 221.832Z" fill="white"/>
</mask>
<g mask="url(#mask0_367_1420)">
<path d="M258.638 230.609L269.74 189.153C270.687 185.603 273.947 182.075 277.009 181.237L320.139 169.66C320.822 169.483 321.417 169.461 321.946 169.572C321.527 167.852 320.095 166.97 318.003 167.521L274.873 179.098C271.811 179.914 268.551 183.464 267.603 187.014L256.501 228.47C255.753 231.226 256.656 233.145 258.528 233.497C258.33 232.704 258.352 231.733 258.638 230.609Z" fill="#267FE5"/>
<path d="M261.215 233.189L272.317 191.733C273.264 188.183 276.524 184.654 279.586 183.817L322.716 172.24C323.244 172.085 323.729 172.085 324.192 172.108C323.927 170.101 322.407 169.064 320.139 169.66L277.008 181.237C273.947 182.052 270.687 185.603 269.739 189.153L258.637 230.609C257.866 233.519 258.902 235.504 260.994 235.658C260.906 234.931 260.95 234.115 261.193 233.167L261.215 233.189Z" fill="#25BFEC"/>
<path d="M264.123 238.261C264.123 237.665 264.167 237.048 264.365 236.342L275.467 194.887C276.414 191.336 279.674 187.808 282.736 186.97L325.866 175.393C326.197 175.305 326.505 175.261 326.791 175.239C326.747 172.88 325.183 171.579 322.716 172.24L279.586 183.817C276.524 184.633 273.264 188.183 272.317 191.733L261.215 233.189C260.378 236.364 261.656 238.437 264.123 238.261Z" fill="#18D0F7"/>
</g>
<path style="mix-blend-mode:lighten" opacity="0.4" d="M153.215 0L88.8945 64.3887L257.141 232.814C257.846 233.519 258.948 233.762 260.335 233.387L303.444 221.832C306.505 221.017 309.765 217.466 310.713 213.938L321.793 172.504C322.277 170.674 322.057 169.197 321.286 168.315L153.215 0Z" fill="url(#paint5_linear_367_1420)"/>
<mask id="mask1_367_1420" style="mask-type:luminance" maskUnits="userSpaceOnUse" x="0" y="228" width="419" height="328">
<path d="M418.869 228.337H0.00976562V555.022H418.869V228.337Z" fill="white"/>
</mask>
<g mask="url(#mask1_367_1420)">
<path opacity="0.6" d="M172.202 504.327L274.124 484.812C286.504 482.431 288.817 471.581 279.301 460.556L213.901 384.745C204.385 373.719 186.63 366.729 174.251 369.089L72.3291 388.604C59.9496 390.985 57.6367 401.834 67.1526 412.86L132.553 488.671C142.069 499.696 159.823 506.687 172.202 504.327Z" fill="#0C0F38"/>
<path d="M165.837 521.924C150.858 521.924 132.421 513.632 121.958 501.526L42.1737 409.045C35.5434 401.371 33.0323 393.212 35.3011 386.685C37.2175 381.128 42.35 377.314 49.7292 375.88L174.075 352.065C189.847 349.044 212.447 357.931 224.496 371.867L304.28 464.349C310.911 472.022 313.4 480.181 311.153 486.708C309.237 492.265 304.104 496.102 296.725 497.513L172.379 521.306C170.308 521.703 168.106 521.902 165.815 521.902L165.837 521.924ZM180.816 355.836C178.767 355.836 176.763 356.012 174.89 356.365L50.5442 380.158C44.773 381.261 40.8301 384.083 39.4423 388.096C37.7021 393.124 39.9049 399.717 45.4779 406.156L125.262 498.638C136.408 511.538 157.158 519.785 171.564 517.006L295.91 493.213C301.681 492.111 305.624 489.288 307.012 485.275C308.752 480.247 306.549 473.654 300.976 467.193L221.192 374.712C211.5 363.51 194.539 355.814 180.816 355.814V355.836Z" fill="url(#paint6_linear_367_1420)"/>
<path d="M94.6436 301.767L166.564 326.773L190.508 322.23C202.887 319.849 220.642 326.861 230.158 337.886L245.929 356.255L317.805 381.239L301.042 429.574H301.02C299.919 433.698 296.329 436.807 290.381 437.954L188.459 457.469C176.08 459.85 158.326 452.838 148.81 441.813L83.4096 366.001C78.4533 360.268 76.7352 354.601 77.9247 350.125H77.8806L94.6436 301.767Z" fill="url(#paint7_linear_367_1420)"/>
<path d="M84.5765 362.65L149.976 438.461C159.492 449.486 177.247 456.498 189.626 454.117L291.548 434.602C297.495 433.455 301.086 430.346 302.187 426.223H302.209L301.064 429.552H301.042C299.941 433.676 296.35 436.785 290.403 437.932L188.481 457.447C176.101 459.828 158.347 452.816 148.831 441.791L83.4311 365.979C78.4748 360.246 76.7567 354.579 77.9462 350.103H77.9021L79.0475 346.751H79.0916C77.9021 351.249 79.6203 356.916 84.5765 362.628V362.65Z" fill="url(#paint8_linear_367_1420)"/>
<path d="M295.359 431.294H295.381L312.144 382.959L240.268 357.975L224.496 339.607C214.98 328.581 197.226 321.591 184.846 323.95L160.902 328.493L93.5195 305.075L94.665 301.745L166.585 326.751L190.529 322.208C202.909 319.827 220.663 326.839 230.179 337.865L245.951 356.233L317.827 381.217L301.064 429.552H301.042C299.94 433.676 296.35 436.785 290.402 437.932L289.433 438.13C292.583 436.565 294.588 434.205 295.359 431.316V431.294Z" fill="#D4088C"/>
<path d="M205.222 409.111L307.144 389.596C319.523 387.214 321.836 376.365 312.32 365.34L246.92 289.529C237.404 278.503 219.65 271.491 207.27 273.873L105.349 293.388C92.9691 295.769 90.6562 306.618 100.172 317.644L165.572 393.455C175.088 404.48 192.842 411.493 205.222 409.111Z" fill="url(#paint9_linear_367_1420)"/>
<path d="M201.852 390.742C193.305 390.742 182.776 385.979 176.785 379.055L129.778 324.568C126.099 320.312 124.689 315.857 125.923 312.351C126.936 309.419 129.69 307.39 133.677 306.618L206.918 292.594C215.906 290.874 228.814 295.968 235.709 303.95L282.716 358.438C286.394 362.694 287.804 367.148 286.57 370.654C285.557 373.587 282.804 375.616 278.817 376.387L205.575 390.412C204.385 390.632 203.152 390.742 201.852 390.742ZM210.685 292.902C209.43 292.902 208.218 293.013 207.051 293.233L133.809 307.258C130.042 307.985 127.465 309.86 126.518 312.572C125.372 315.88 126.738 320.091 130.262 324.171L177.269 378.659C184.032 386.487 196.698 391.492 205.465 389.794L278.707 375.77C282.473 375.042 285.05 373.168 285.998 370.456C287.143 367.148 285.777 362.936 282.253 358.857L235.246 304.369C229.365 297.577 219.056 292.902 210.685 292.902Z" fill="#480689"/>
<path d="M105.349 293.388L207.27 273.872C213.68 272.638 221.522 273.939 228.924 277.004C223.307 275.416 217.734 274.931 212.932 275.857L111.01 295.372C98.6302 297.754 96.3173 308.603 105.833 319.628L171.233 395.439C175.815 400.754 182.335 405.12 189.23 407.964C180.331 405.472 171.41 400.224 165.572 393.477L100.172 317.666C90.6562 306.64 92.9691 295.791 105.349 293.41V293.388Z" fill="#6EE8FC"/>
<path d="M198.723 406.862L300.645 387.347C313.024 384.965 315.337 374.116 305.821 363.091L240.421 287.28C235.906 282.054 229.518 277.732 222.755 274.887C231.809 277.335 240.994 282.649 246.942 289.529L312.342 365.34C321.858 376.366 319.545 387.215 307.165 389.596L205.243 409.111C198.745 410.368 190.771 409.001 183.26 405.848C188.701 407.303 194.097 407.744 198.723 406.84V406.862Z" fill="#D4088C"/>
</g>
<defs>
<linearGradient id="paint0_linear_367_1420" x1="272.161" y1="196.222" x2="365.622" y2="264.049" gradientUnits="userSpaceOnUse">
<stop stop-color="#6EE8FC"/>
<stop offset="0.22" stop-color="#6EE8FC"/>
<stop offset="0.49" stop-color="#6EE1F8"/>
<stop offset="0.77" stop-color="#D4088C"/>
<stop offset="1" stop-color="#D4088C"/>
</linearGradient>
<linearGradient id="paint1_linear_367_1420" x1="235.169" y1="288.327" x2="380.599" y2="143.05" gradientUnits="userSpaceOnUse">
<stop stop-color="#A31FA9"/>
<stop offset="0.07" stop-color="#8A16A0"/>
<stop offset="0.15" stop-color="#740F98"/>
<stop offset="0.24" stop-color="#640A92"/>
<stop offset="0.34" stop-color="#5A068F"/>
<stop offset="0.48" stop-color="#58068E"/>
<stop offset="0.63" stop-color="#4D21A3"/>
<stop offset="0.94" stop-color="#3167D9"/>
<stop offset="1" stop-color="#2C75E4"/>
</linearGradient>
<linearGradient id="paint2_linear_367_1420" x1="251.788" y1="304.964" x2="397.217" y2="159.687" gradientUnits="userSpaceOnUse">
<stop stop-color="#D4088C"/>
<stop offset="0.23" stop-color="#D4088C"/>
<stop offset="0.51" stop-color="#6EE1F8"/>
<stop offset="0.78" stop-color="#6EE8FC"/>
<stop offset="1" stop-color="#6EE8FC"/>
</linearGradient>
<linearGradient id="paint3_linear_367_1420" x1="357.904" y1="226.411" x2="429.885" y2="120.224" gradientUnits="userSpaceOnUse">
<stop stop-color="#8D139B"/>
<stop offset="0.17" stop-color="#841BA1"/>
<stop offset="0.43" stop-color="#6D32B1"/>
<stop offset="0.76" stop-color="#4958CC"/>
<stop offset="1" stop-color="#2979E4"/>
</linearGradient>
<linearGradient id="paint4_linear_367_1420" x1="367.29" y1="212.57" x2="420.876" y2="133.505" gradientUnits="userSpaceOnUse">
<stop stop-color="#630692"/>
<stop offset="0.23" stop-color="#5A0D93"/>
<stop offset="0.59" stop-color="#432299"/>
<stop offset="1" stop-color="#2142A1"/>
</linearGradient>
<linearGradient id="paint5_linear_367_1420" x1="307.753" y1="219.065" x2="120.878" y2="32.3883" gradientUnits="userSpaceOnUse">
<stop offset="0.01" stop-color="#25BFEC"/>
<stop offset="0.05" stop-color="#23B4E1"/>
<stop offset="0.22" stop-color="#1E82AF"/>
<stop offset="0.39" stop-color="#1A5986"/>
<stop offset="0.56" stop-color="#173A66"/>
<stop offset="0.72" stop-color="#14234F"/>
<stop offset="0.87" stop-color="#131541"/>
<stop offset="1" stop-color="#13113D"/>
</linearGradient>
<linearGradient id="paint6_linear_367_1420" x1="311.879" y1="484.705" x2="34.7067" y2="388.556" gradientUnits="userSpaceOnUse">
<stop stop-color="#D4088C"/>
<stop offset="0.23" stop-color="#D4088C"/>
<stop offset="0.51" stop-color="#6EE1F8"/>
<stop offset="0.78" stop-color="#6EE8FC"/>
<stop offset="1" stop-color="#6EE8FC"/>
</linearGradient>
<linearGradient id="paint7_linear_367_1420" x1="322.623" y1="435.919" x2="49.9259" y2="341.322" gradientUnits="userSpaceOnUse">
<stop stop-color="#A31FA9"/>
<stop offset="0.07" stop-color="#8A16A0"/>
<stop offset="0.15" stop-color="#740F98"/>
<stop offset="0.24" stop-color="#640A92"/>
<stop offset="0.34" stop-color="#5A068F"/>
<stop offset="0.48" stop-color="#58068E"/>
<stop offset="0.63" stop-color="#4D21A3"/>
<stop offset="0.94" stop-color="#3167D9"/>
<stop offset="1" stop-color="#2C75E4"/>
</linearGradient>
<linearGradient id="paint8_linear_367_1420" x1="312.131" y1="466.165" x2="39.454" y2="371.576" gradientUnits="userSpaceOnUse">
<stop stop-color="#D4088C"/>
<stop offset="0.23" stop-color="#D4088C"/>
<stop offset="0.51" stop-color="#6EE1F8"/>
<stop offset="0.78" stop-color="#6EE8FC"/>
<stop offset="1" stop-color="#6EE8FC"/>
</linearGradient>
<linearGradient id="paint9_linear_367_1420" x1="46.6606" y1="433.168" x2="-109.083" y2="343.192" gradientUnits="userSpaceOnUse">
<stop stop-color="#8D139B"/>
<stop offset="0.17" stop-color="#841BA1"/>
<stop offset="0.43" stop-color="#6D32B1"/>
<stop offset="0.76" stop-color="#4958CC"/>
<stop offset="1" stop-color="#2979E4"/>
</linearGradient>
</defs>
</svg>
