<svg width="35" height="35" viewBox="0 0 35 35" fill="none" xmlns="http://www.w3.org/2000/svg">
<path d="M28.1014 7.7729C26.1618 6.86874 24.0618 6.21249 21.8743 5.83332C21.8551 5.83271 21.836 5.8363 21.8184 5.84386C21.8007 5.85142 21.785 5.86276 21.7722 5.87707C21.5097 6.35832 21.2034 6.9854 20.9993 7.46665C18.6791 7.11665 16.3195 7.11665 13.9993 7.46665C13.7951 6.97082 13.4889 6.35832 13.2118 5.87707C13.1972 5.8479 13.1534 5.83332 13.1097 5.83332C10.9222 6.21249 8.83678 6.86874 6.88261 7.7729C6.86803 7.7729 6.85344 7.78749 6.83886 7.80207C2.87219 13.7375 1.77844 19.5125 2.31803 25.2292C2.31803 25.2583 2.33261 25.2875 2.36178 25.3021C4.98678 27.2271 7.50969 28.3937 10.0034 29.1667C10.0472 29.1812 10.0909 29.1667 10.1055 29.1375C10.6889 28.3354 11.2139 27.4896 11.6659 26.6C11.6951 26.5417 11.6659 26.4833 11.6076 26.4687C10.7764 26.1479 9.98886 25.7687 9.21594 25.3312C9.15761 25.3021 9.15761 25.2146 9.20136 25.1708C9.36178 25.0542 9.52219 24.9229 9.68261 24.8062C9.71178 24.7771 9.75553 24.7771 9.78469 24.7917C14.8014 27.0812 20.2118 27.0812 25.1701 24.7917C25.1993 24.7771 25.243 24.7771 25.2722 24.8062C25.4326 24.9375 25.593 25.0542 25.7534 25.1854C25.8118 25.2292 25.8118 25.3167 25.7389 25.3458C24.9805 25.7979 24.1784 26.1625 23.3472 26.4833C23.2889 26.4979 23.2743 26.5708 23.2889 26.6146C23.7555 27.5042 24.2805 28.35 24.8493 29.1521C24.893 29.1667 24.9368 29.1812 24.9805 29.1667C27.4889 28.3937 30.0118 27.2271 32.6368 25.3021C32.6659 25.2875 32.6805 25.2583 32.6805 25.2292C33.3222 18.6229 31.6159 12.8917 28.1597 7.80207C28.1451 7.78749 28.1305 7.7729 28.1014 7.7729ZM12.4243 21.7437C10.9222 21.7437 9.66803 20.3583 9.66803 18.6521C9.66803 16.9458 10.893 15.5604 12.4243 15.5604C13.9701 15.5604 15.1951 16.9604 15.1805 18.6521C15.1805 20.3583 13.9555 21.7437 12.4243 21.7437ZM22.5889 21.7437C21.0868 21.7437 19.8326 20.3583 19.8326 18.6521C19.8326 16.9458 21.0576 15.5604 22.5889 15.5604C24.1347 15.5604 25.3597 16.9604 25.3451 18.6521C25.3451 20.3583 24.1347 21.7437 22.5889 21.7437Z" fill="white"/>
</svg>
