<svg width="35" height="35" viewBox="0 0 35 35" fill="none" xmlns="http://www.w3.org/2000/svg">
<path d="M32.7544 8.74992C31.6315 9.26034 30.4211 9.59575 29.1669 9.75617C30.4503 8.98325 31.4419 7.75825 31.9086 6.28534C30.6982 7.0145 29.3565 7.52492 27.9419 7.81659C26.7898 6.56242 25.1711 5.83325 23.3336 5.83325C19.9065 5.83325 17.1065 8.63325 17.1065 12.0895C17.1065 12.5853 17.1648 13.0666 17.2669 13.5187C12.0753 13.2562 7.45234 10.7624 4.37526 6.98534C3.83568 7.90409 3.52943 8.98325 3.52943 10.1208C3.52943 12.2937 4.62318 14.2187 6.31484 15.3124C5.27943 15.3124 4.31693 15.0208 3.47109 14.5833V14.627C3.47109 17.6603 5.62943 20.1978 8.48776 20.7666C7.57007 21.0177 6.60665 21.0527 5.67318 20.8687C6.06927 22.1119 6.845 23.1997 7.89133 23.9792C8.93765 24.7587 10.202 25.1907 11.5065 25.2145C9.29514 26.9651 6.55401 27.9114 3.73359 27.8978C3.23776 27.8978 2.74193 27.8687 2.24609 27.8103C5.01693 29.5895 8.31276 30.6249 11.8419 30.6249C23.3336 30.6249 29.6482 21.0874 29.6482 12.8187C29.6482 12.5416 29.6482 12.2791 29.6336 12.002C30.8586 11.127 31.9086 10.0187 32.7544 8.74992Z" fill="white"/>
</svg>
