<svg width="35" height="35" viewBox="0 0 35 35" fill="none" xmlns="http://www.w3.org/2000/svg">
<g clip-path="url(#clip0_367_1731)">
<path fill-rule="evenodd" clip-rule="evenodd" d="M28.841 6.46037C29.2014 6.30869 29.5959 6.25637 29.9833 6.30887C30.3708 6.36137 30.7371 6.51676 31.0441 6.75887C31.3512 7.00097 31.5877 7.32095 31.7291 7.68549C31.8705 8.05002 31.9116 8.4458 31.8481 8.83162L28.5406 28.8939C28.2198 30.8291 26.0965 31.9389 24.3217 30.975C22.8371 30.1685 20.6321 28.926 18.6487 27.6295C17.6571 26.9806 14.6194 24.9025 14.9927 23.4237C15.3135 22.1593 20.4177 17.4081 23.3344 14.5833C24.4792 13.4735 23.9571 12.8333 22.6052 13.8541C19.2467 16.3887 13.8581 20.2431 12.076 21.3281C10.504 22.2847 9.68437 22.4481 8.70437 22.2847C6.91645 21.9872 5.25833 21.5264 3.90499 20.965C2.07624 20.2066 2.1652 17.6924 3.90353 16.9604L28.841 6.46037Z" fill="white"/>
</g>
<defs>
<clipPath id="clip0_367_1731">
<rect width="35" height="35" fill="white"/>
</clipPath>
</defs>
</svg>
