<svg width="35" height="35" viewBox="0 0 35 35" fill="none" xmlns="http://www.w3.org/2000/svg">
<g clip-path="url(#clip0_367_1727)">
<path d="M9.20906 9.0066C8.84448 8.07618 8.85906 7.01306 9.02093 6.04035C10.1354 6.37427 11.182 6.90253 12.1126 7.60077C12.5209 7.91285 13.0561 8.01347 13.5549 7.86327C14.8347 7.48036 16.1638 7.28775 17.4997 7.2916C18.9011 7.2916 20.2326 7.49577 21.4416 7.86181C21.9403 8.01347 22.4755 7.91139 22.8824 7.59931C23.8125 6.90123 24.8587 6.37297 25.9726 6.03889C26.1345 7.0116 26.1476 8.07472 25.7859 9.00368C25.5672 9.56368 25.6766 10.2083 26.0893 10.6662C27.1451 11.8372 27.708 13.1833 27.708 14.5833C27.708 17.6662 24.8351 20.6893 20.2209 21.6095C19.0659 21.8399 18.6153 23.2939 19.4991 24.1266C20.0664 24.6604 20.4163 25.4128 20.4163 26.2499V30.6249C20.4163 31.0117 20.57 31.3826 20.8435 31.6561C21.117 31.9296 21.4879 32.0833 21.8747 32.0833C22.2615 32.0833 22.6324 31.9296 22.9059 31.6561C23.1794 31.3826 23.333 31.0117 23.333 30.6249V26.2499C23.333 25.4187 23.158 24.6283 22.8459 23.9122C27.2457 22.3853 30.6247 18.9481 30.6247 14.5833C30.6247 12.6189 29.9188 10.8135 28.7478 9.30118C29.0541 8.10535 29.0264 6.90077 28.9097 5.97618C28.8061 5.14785 28.6618 4.06285 28.0784 3.41535C27.2107 2.45431 25.7743 3.02014 24.7534 3.36868C23.6584 3.73923 22.6165 4.25157 21.6545 4.89264C20.2968 4.54616 18.9009 4.37222 17.4997 4.37493C16.0501 4.37493 14.6516 4.55722 13.342 4.8941C12.3799 4.25301 11.3381 3.74067 10.243 3.37014C9.22218 3.02014 7.78427 2.45431 6.91656 3.41535C6.32156 4.07452 6.1976 5.07347 6.09114 5.92222L6.08385 5.97764C5.96718 6.90368 5.94093 8.10972 6.24718 9.30702C5.08052 10.8178 4.37468 12.6203 4.37468 14.5833C4.37468 18.9466 7.75364 22.3853 12.1534 23.9122C11.835 24.6404 11.6692 25.426 11.6664 26.2208L11.4214 26.2703C10.3757 26.4147 9.70635 26.2849 9.25135 26.0924C8.14302 25.6229 7.57135 24.4401 6.87427 23.536C6.43968 22.9745 5.80677 22.2731 4.83552 21.9493C4.65377 21.8888 4.46189 21.8647 4.27082 21.8783C4.07975 21.8919 3.89324 21.9431 3.72194 22.0288C3.37597 22.2019 3.11295 22.5054 2.99073 22.8724C2.8685 23.2395 2.8971 23.6401 3.07022 23.986C3.24334 24.332 3.5468 24.595 3.91385 24.7172C4.7276 24.9885 5.29052 26.3826 5.80677 27.001C6.35073 27.6543 7.07406 28.3368 8.11093 28.7772C9.10552 29.2001 10.2736 29.3504 11.6664 29.1797V30.6249C11.6664 31.0117 11.82 31.3826 12.0935 31.6561C12.367 31.9296 12.7379 32.0833 13.1247 32.0833C13.5115 32.0833 13.8824 31.9296 14.1559 31.6561C14.4294 31.3826 14.583 31.0117 14.583 30.6249V26.2499C14.583 25.4128 14.933 24.6604 15.5003 24.1266C16.3855 23.2924 15.9334 21.8399 14.7784 21.6095C10.1628 20.6893 7.29135 17.6662 7.29135 14.5833C7.29135 13.1862 7.85281 11.8401 8.90718 10.6691C9.31989 10.2112 9.42781 9.5666 9.20906 9.0066Z" fill="white"/>
</g>
<defs>
<clipPath id="clip0_367_1727">
<rect width="35" height="35" fill="white"/>
</clipPath>
</defs>
</svg>
