<svg width="35" height="35" viewBox="0 0 35 35" fill="none" xmlns="http://www.w3.org/2000/svg">
<path d="M10.1204 7.29166C10.1201 8.06521 9.81239 8.80692 9.26514 9.35363C8.71789 9.90034 7.97587 10.2073 7.20232 10.2069C6.42877 10.2065 5.68706 9.89882 5.14035 9.35157C4.59364 8.80431 4.28672 8.06229 4.28711 7.28874C4.2875 6.5152 4.59516 5.77348 5.14241 5.22678C5.68967 4.68007 6.43169 4.37315 7.20523 4.37354C7.97878 4.37392 8.7205 4.68158 9.2672 5.22884C9.81391 5.77609 10.1208 6.51811 10.1204 7.29166ZM10.2079 12.3667H4.37461V30.625H10.2079V12.3667ZM19.4246 12.3667H13.6204V30.625H19.3663V21.0437C19.3663 15.7062 26.3225 15.2104 26.3225 21.0437V30.625H32.0829V19.0604C32.0829 10.0625 21.7871 10.3979 19.3663 14.8167L19.4246 12.3667Z" fill="white"/>
</svg>
