<svg width="35" height="35" viewBox="0 0 35 35" fill="none" xmlns="http://www.w3.org/2000/svg">
<path d="M5.83529 4.375H29.1686C29.5554 4.375 29.9263 4.52865 30.1998 4.80214C30.4733 5.07563 30.627 5.44656 30.627 5.83333V29.1667C30.627 29.5534 30.4733 29.9244 30.1998 30.1979C29.9263 30.4714 29.5554 30.625 29.1686 30.625H5.83529C5.44851 30.625 5.07758 30.4714 4.80409 30.1979C4.5306 29.9244 4.37695 29.5534 4.37695 29.1667V5.83333C4.37695 5.44656 4.5306 5.07563 4.80409 4.80214C5.07758 4.52865 5.44851 4.375 5.83529 4.375ZM7.29362 7.29167V27.7083H27.7103V7.29167H7.29362ZM25.2311 23.2458L26.6238 24.6371V24.71H19.4474V24.6371L20.9115 23.2458C21.0574 23.1 21.1303 22.9542 21.1303 22.734V14.0933C21.1303 13.7258 21.1303 13.214 21.2047 12.775L16.3717 24.8573H16.2988L11.3172 13.7258C11.2442 13.4342 11.1713 13.4342 11.0984 13.2883V20.6092C11.024 21.1225 11.0984 21.5615 11.3172 22.0019L13.2947 24.6371V24.71H8.02133V24.6371L9.99883 21.9275C10.2176 21.49 10.2905 20.9767 10.2176 20.5363V12.4833C10.2176 12.1173 10.1447 11.6769 9.85299 11.3852L8.5332 9.55208V9.47917H13.6607L17.9074 18.9262L21.6436 9.47917H26.6238V9.55208L25.2326 11.1635C25.0867 11.3094 25.0138 11.5296 25.0138 11.6754V22.8069C25.0138 22.9527 25.0853 23.1729 25.2311 23.2458Z" fill="white"/>
</svg>
